<svg xmlns="http://www.w3.org/2000/svg" version="1.1" xmlns:xlink="http://www.w3.org/1999/xlink" viewBox="0 0 700 700" style="overflow: hidden; display: block;" width="700" height="700"><defs></defs><g id="two-0" transform="matrix(1 0 0 1 0 0)" opacity="1"><path transform="matrix(1 0 0 1 350 350)" id="two-2" d="M 224.405061 65.891271 C 225.476214 103.154313 285.324635 139.068321 265.972792 170.930334 C 247.334614 201.617327 191.517588 169.865149 157.743036 182.045168 C 136.398319 189.742651 118.2281 206.001218 100.604436 220.292987 C 78.960358 237.84508 63.391869 263.876903 40.150265 279.25123 C 14.663694 296.110604 -15.800018 322.992902 -45.285421 314.96702 C -77.796648 306.117513 -76.597782 248.739835 -106.532125 233.272812 C -133.943504 219.1094 -173.190337 246.085635 -199.997453 230.809364 C -224.668236 216.750502 -241.852092 186.082377 -245.793406 157.961829 C -250.267032 126.04333 -229.345189 94.538914 -218.546891 64.171157 C -210.842171 42.503382 -188.973176 22.871253 -191.373372 0 C -194.343144 -28.298691 -253.940148 -45.479256 -240.746147 -70.689447 C -220.638272 -109.110193 -134.955314 -35.278107 -109.339231 -70.268057 C -91.176044 -95.077821 -134.56314 -128.418848 -137.773083 -158.998613 C -141.816893 -197.522283 -161.613477 -260.675291 -125.944926 -275.780918 C -88.243272 -291.747565 -68.63267 -207.417517 -28.592544 -198.865509 C -8.837559 -194.646122 10.899758 -217.61886 30.751316 -213.880102 C 50.861994 -210.092542 68.306734 -193.719641 81.217903 -177.842402 C 93.90534 -162.240292 88.115521 -131.690223 105.775575 -122.071522 C 138.659722 -104.160886 180.872629 -146.053172 217.823328 -139.986554 C 251.961196 -134.38175 302.529296 -124.841524 310.615105 -91.204825 C 319.227668 -55.376846 262.788032 -32.900316 246.193168 -0.000001 C 235.879173 20.448115 223.746997 42.998677 224.405061 65.891271 Z " fill="hsl(305, 77%, 40%)" stroke="undefined" stroke-width="1" stroke-opacity="1" fill-opacity="1" visibility="visible" stroke-linecap="butt" stroke-linejoin="miter" stroke-miterlimit="4"></path></g></svg>