<svg xmlns="http://www.w3.org/2000/svg" version="1.1" xmlns:xlink="http://www.w3.org/1999/xlink" xmlns:svgjs="http://svgjs.dev/svgjs" viewBox="0 0 800 800"><defs><linearGradient x1="50%" y1="0%" x2="50%" y2="100%" id="wwwhirl-grad"><stop stop-color="hsl(206, 75%, 49%)" stop-opacity="1" offset="45%"></stop><stop stop-color="hsl(331, 90%, 56%)" stop-opacity="1" offset="100%"></stop></linearGradient></defs><g stroke-width="2" stroke="url(#wwwhirl-grad)" fill="none" stroke-linecap="round"><path d="M37.00000251770027 409.3407955112555C50.75000289917 404.1845453682044 75.50000358581553 380.8782947216132 103.000004348755 384.59079482461C130.50000511169446 388.3032949276068 141.5000054168703 436.8545462745765 169.00000617980973 427.1607960056403C196.5000069427492 417.46704573670416 207.50000724792503 336.82329349938414 235.00000801086446 338.06079353371643C262.500008773804 339.2982935680487 273.5000090789798 427.73829602166205 301.0000098419193 433.1007961704352C328.50001060485874 438.46329631920844 339.5000109100345 357.81954408188847 367.000011672974 363.80079424782775C394.50001243591345 369.7820444137671 405.5000127410893 457.89204685822517 433.0000135040287 461.81079696694405C460.5000142669682 465.72954707566294 471.50001457214404 387.56079490700745 499.0000153350834 382.61079476967836C526.5000160980228 377.6607946323493 537.5000164031987 434.3382962047675 565.0000171661382 438.05079630776436C592.5000179290777 441.7632964107612 603.5000182342535 395.89329513817813 631.000018997193 400.43079526406314C658.5000197601325 404.96829538994814 669.5000200653083 461.0682969463447 697.0000208282477 459.8307969120124C724.5000215911871 458.59329687768013 749.2500222778326 408.1032954769233 763.0000226593024 394.4907950992682 " transform="rotate(99, 400, 400)"></path><path d="M48.00000244140632 409.05774850002433C61.33333614464971 404.05774836130803 85.3333368104878 381.4577477343105 112.00000421697456 385.0577478341862C138.6666716234613 388.65774793406194 149.33333858605602 435.73774924021427 176.00000599254278 426.3377489794277C202.66667339902952 416.93774871864116 213.33334036162427 338.7377465491187 240.000007768111 339.9377465824106C266.6666751745978 341.13774661570255 277.3333421371925 426.897748994964 304.00000954367925 432.0977491392289C330.66667695016605 437.2977492834938 341.3333439127607 359.09774711397137 368.00001131924745 364.89774727488225C394.66667872573424 370.6977474357931 405.33334568832896 456.13774980617666 432.00001309481576 459.93774991160103C458.66668050130244 463.7377500170254 469.3333474638972 387.9377479140868 496.0000148703839 383.1377477809192C522.6666822768707 378.33774764775154 533.3333492394653 433.29774917252075 560.0000166459522 436.8977492723965C586.666684052439 440.4977493722722 597.3333510150337 396.0177481382523 624.0000184215204 400.4177482603226C650.6666858280073 404.8177483823929 661.3333527906019 459.2177498916259 688.0000201970887 458.017749858334C714.6666876035754 456.8177498250421 738.6666882694134 407.8577484667324 752.0000219726569 394.6577481005215 " transform="rotate(96, 400, 400)"></path><path d="M59.00000236511238 408.77468241530676C71.9166693901294 403.9309322809254 95.16667003516005 382.0371816735215 121.00000408519412 385.5246817702761C146.83333813522813 389.0121818670307 157.1666717552418 434.62093313236585 183.0000058052758 425.5146828797288C208.83333985530987 416.4084326270918 219.1666734753235 340.65218052536693 245.00000752535757 341.8146805576185C270.8333415753916 342.97718058987004 281.1666751954052 426.05718289477954 307.0000092454393 431.09468303453616C332.83334329547336 436.1321831742928 343.16667691548696 360.37593107256794 369.00001096552097 365.99468122845036C394.83334501555504 371.6134313843328 405.1666786355687 454.3834336806419 431.0000126856027 458.06468378277174C456.8333467356368 461.74593388490155 467.16668035565044 388.31468184767976 493.0000144056845 383.66468171867365C518.8333484557185 379.01468158966753 529.1666820757321 432.2571830667877 555.0000161257661 435.7446831635423C580.8333501758003 439.2321832602969 591.1666837958139 396.1421820648401 617.000017845848 400.4046821830957C642.8333518958821 404.6671823013513 653.1666855158957 457.3671837634208 679.0000195659296 456.20468373116927C704.8333536159636 455.0421836989177 728.0833542609943 407.61218238305526 741.0000212860114 394.82468202828835 " transform="rotate(93, 400, 400)"></path><path d="M70.00000228881842 408.4916392187728C82.50000263560909 403.8041390887263 105.00000325983231 382.6166385009161 130.00000395341365 385.99163859454956C155.00000464699497 389.36663868818306 165.00000492442751 433.5041399127009 190.00000561800886 424.6916396682135C215.0000063115902 415.8791394237261 225.00000658902275 342.5666373897988 250.00000728260406 343.69163742100994C275.00000797618543 344.81663745222113 285.000008253618 425.2166396827787 310.0000089471993 430.09163981802703C335.00000964078066 434.9666399532754 345.00000991821315 361.65413791934816 370.0000106117945 367.09163807020207C395.00001130537584 372.52913822105603 405.0000115828084 452.6291404432907 430.0000122763897 456.191640542126C455.000012969971 459.7541406409613 465.0000132474036 388.6916386694564 490.00001394098496 384.19163854461175C515.0000146345662 379.69163841976706 525.0000149119987 431.2166398492382 550.0000156055801 434.59163994287167C575.0000162991615 437.96664003650517 585.000016576594 396.2666388796115 610.0000172701755 400.3916389940524C635.0000179637568 404.51663910849334 645.0000182411893 455.51664052339925 670.0000189347705 454.3916404921881C695.0000196283519 453.266640460977 717.5000202525752 407.36663918756165 730.0000205993658 394.9916388442389 " transform="rotate(90, 400, 400)"></path><path d="M81.00000221252448 408.20857313405526C93.08333588108879 403.6773230083436 114.83333648450457 383.19607244012707 139.0000038216332 386.45857253063946C163.1666711587618 389.72107262115185 172.83333809361326 432.38732380485243 197.0000054307419 423.8685735685146C221.16667276787052 415.34982333217675 230.833339702722 344.48107136604705 255.00000703985063 345.5685713962178C279.16667437697924 346.6560714263886 288.83334131183074 424.3760735825943 313.00000864895935 429.08857371333437C337.16667598608797 433.80107384407444 346.8333429209394 362.93232187794473 371.000010258068 368.18857202377023C395.16667759519663 373.4448221695957 404.8333445300481 450.87482431775584 429.00001186717674 454.3185744132967C453.16667920430535 457.7623245088375 462.8333461391569 389.06857260304935 487.00001347628546 384.7185724823662C511.1666808134141 380.36857236168305 520.8333477482655 430.1760737435052 545.0000150853941 433.4385738340175C569.1666824225229 436.70107392452985 578.8333493573742 396.3910728061993 603.000016694503 400.37857291682553C627.1666840316316 404.36607302745176 636.8333509664831 453.6660743951942 661.0000183036116 452.57857436502337C685.1666856407402 451.4910743348526 706.9166862441559 407.12107310388444 719.0000199127203 395.15857277200575 " transform="rotate(87, 400, 400)"></path><path d="M92.00000213623053 407.9255184934295C103.6666691265685 403.55051837205275 124.66666970917683 383.7755178234299 148.00000368985275 386.92551791082116C171.33333767052864 390.0755179982124 180.666671262799 431.27051914109575 204.00000524347493 423.0455189129075C227.33333922415085 414.8205186847192 236.66667281642125 346.3955167863871 260.00000679709717 347.4455168155175C283.33334077777306 348.4955168446479 292.66667437004344 423.53551892650165 316.0000083507193 428.0855190527335C339.3333423313953 432.63551917896524 348.66667592366565 364.21051728063316 372.00000990434154 369.28551742143014C395.3333438850174 374.3605175622272 404.6666774772878 449.1205196363128 428.00001145796375 452.44551972855913C451.3333454386397 455.7705198208054 460.6666790309101 389.44551798073417 484.000013011586 385.2455178642125C507.33334699226185 381.04551774769084 516.6666805845323 429.1355190818639 540.0000145652082 432.28551916925517C563.3333485458841 435.4355192566464 572.6666821381544 396.51551817687897 596.0000161188304 400.36551828369045C619.3333500995063 404.215518390502 628.6666836917767 451.81551971108087 652.0000176724526 450.7655196819505C675.3333516531285 449.71551965282003 696.3333522357368 406.87551846429903 708.0000192260748 395.3255181438645 " transform="rotate(84, 400, 400)"></path><path d="M103.00000205993659 407.64247911159276C114.25000237204819 403.4237289945509 134.5000029338491 384.35497846552175 157.00000355807228 387.3924785497919C179.50000418229547 390.429978634062 188.5000044319848 430.15372973612807 211.00000505620795 422.2224795160894C233.50000568043117 414.29122929605074 242.50000593012047 348.30997746551617 265.0000065543437 349.32247749360624C287.5000071785669 350.33497752169626 296.5000074282562 422.6949795291981 319.0000080524794 427.08247965092164C341.5000086767026 431.46997977264516 350.50000892639184 365.4887279421106 373.00000955061506 370.3824780778791C395.5000101748383 375.2762282136477 404.5000104245276 447.36623021365887 427.00001104875076 450.57248030261064C449.500011672974 453.7787303915624 458.5000119226633 389.822478617208 481.00001254688647 385.7724785048478C503.50001317110963 381.72247839248763 512.5000134207988 428.09497967901166 535.0000140450221 431.1324797632818C557.5000146692455 434.16997984755193 566.5000149189347 396.63997880634764 589.0000155431579 400.3524789093444C611.5000161673811 404.06497901234127 620.5000164170704 449.9649802857566 643.0000170412935 448.9524802576666C665.5000176655168 447.9399802295765 685.7500182273176 406.62997908350275 697.0000185394292 395.4924787745122 " transform="rotate(81, 400, 400)"></path><path d="M114.00000198364263 407.3594168415725C124.83333561752788 403.29691672886554 144.33333615852135 384.93441621943003 166.0000034262918 387.859416300579C187.6666706940623 390.7844163817281 196.3333376011705 429.03691744297686 218.000004868941 421.3994172310878C239.6666721367115 413.7619170191987 248.3333390438197 350.22441525646167 270.0000063115902 351.19941528351137C291.6666735793607 352.174415310561 300.33334048646896 421.85441724371094 322.0000077542394 426.0794173609262C343.6666750220099 430.30441747814143 352.3333419291181 366.7669157154045 374.0000091968886 371.47941584614455C395.6666764646591 376.1919159768846 404.3333433717673 445.6119179028213 426.0000106395378 448.69941798847856C447.66667790730827 451.7869180741359 456.3333448144165 390.1994163654982 478.00001208218697 386.2994162572996C499.66667934995746 382.3994161491009 508.33334625706556 427.05441738797583 530.0000135248362 429.9794174691249C551.6666807926067 432.90441755027393 560.3333476997147 396.7644165476327 582.0000149674854 400.3394166468148C603.6666822352558 403.91441674599696 612.3333491423641 448.1144179722488 634.0000164101345 447.1394179451991C655.666683677905 446.1644179181494 675.1666842188985 406.3844168145228 686.0000178527837 395.6594165169764 " transform="rotate(78, 400, 400)"></path><path d="M125.00000190734869 407.07636220094673C135.41666886300757 403.17011209257464 154.1666693831936 385.51386160273285 175.00000329451137 388.3263616807607C195.83333720582914 391.1388617587886 204.16667077035626 427.9201127792202 225.00000468167406 420.57636257548063C245.83333859299182 413.23261237174114 254.16667215751897 352.13886067680176 275.00000606883674 353.07636070281103C295.8333399801545 354.0138607288203 304.16667354468166 421.01386258761835 325.0000074559994 425.07636270032526C345.8333413673172 429.13886281303223 354.16667493184434 368.04511111809285 375.00000884316205 372.57636124380446C395.8333427544799 377.1076113695161 404.166676319007 443.8576132213783 425.0000102303248 446.82636330374106C445.83334414164256 449.7951133861038 454.1666777061697 390.57636174318304 475.0000116174875 386.82636163914583C495.83334552880524 383.0763615351086 504.1666790933323 426.0138627263346 525.0000130046501 428.8263628043625C545.8333469159679 431.6388628823904 554.166680480495 396.88886191831233 575.0000143918128 400.3263620136798C595.8333483031306 403.7638621090472 604.1666818676579 446.26386328813544 625.0000157789755 445.32636326212616C645.8333496902933 444.3888632361169 664.5833502104794 406.13886217493746 675.0000171661382 395.8263618888351 " transform="rotate(75, 400, 400)"></path><path d="M136.00000183105476 406.7933037456237C146.00000210848728 403.0433036415865 164.00000260786584 386.09330317133833 184.00000316273093 388.79330324624516C204.00000371759597 391.4933033211519 212.000003939542 426.8033043007662 232.00000449440708 419.75330410517626C252.00000504927215 412.70330390958634 260.0000052712182 354.0533022824445 280.0000058260833 354.9533023074134C300.0000063809483 355.8533023323824 308.00000660289436 420.17330411682843 328.00000715775946 424.07330422502713C348.00000771262455 427.97330433322577 356.00000793457053 369.323302706084 376.0000084894356 373.67330282676716C396.00000904430067 378.0233029474503 404.0000092662467 442.103304725238 424.0000098211118 444.95330480430624C444.0000103759769 447.8033048833745 452.0000105979229 390.95330330617054 472.000011152788 387.35330320629487C492.000011707653 383.75330310641914 500.00001192959905 424.97330424999603 520.0000124844642 427.6733043249028C540.0000130393292 430.3733043998096 548.0000132612753 397.0133034742947 568.0000138161404 400.31330356584743C588.0000143710055 403.61330365740014 596.0000145929514 444.4133047893249 616.0000151478165 443.51330476435595C636.0000157026815 442.61330473938705 654.00001620206 405.8933037206548 664.0000164794926 395.99330344599656 " transform="rotate(72, 400, 400)"></path><path d="M146.9999864959717 406.5102529196952C156.5833200951779 402.9165028199929 173.83332057374906 386.6727523693384 192.9999877721614 389.26025244112407C212.16665497057375 391.8477525129097 219.8333218499387 425.68650345170676 238.99998904835104 418.9302532642664C258.1666562467634 412.17400307682607 265.8333231261284 355.9677515174818 284.9999903245407 356.83025154141035C304.1666575229531 357.69275156533894 311.83332440231806 419.3327532754331 330.9999916007304 423.07025337912347C350.1666587991428 426.8077534828139 357.83332567850766 370.60150192346964 376.99999287692003 374.77025203912433C396.1666600753324 378.939002154779 403.8333269546974 440.3490038584922 422.99999415310975 443.080253934266C442.1666613515221 445.8115040100397 449.83332823088705 391.3302524985526 468.9999954292994 387.8802524028384C488.16666262771173 384.4302523071242 495.83332950707666 423.93275340305206 514.9999967054891 426.5202534748377C534.1666639039015 429.10775354662337 541.8333307832664 397.13775265967155 560.9999979816788 400.3002527474096C580.1666651800912 403.4627528351476 587.8333320594561 442.56275391990886 606.9999992578685 441.70025389598027C626.1666664562807 440.83775387205174 643.4166669348518 405.64775289576664 653.000000534058 396.16025263255256 " transform="rotate(69, 400, 400)"></path><path d="M157.99998641967778 406.22719827906946C167.1666533406576 402.789698183702 183.6666537984213 387.2521977526412 201.99998764038094 389.72719782130577C220.33332148234058 392.2021978899703 227.66665501912445 424.5696987879501 245.9999888610841 418.1071986086593C264.33332270304373 411.64469842936853 271.6666562398276 357.88219693782185 289.99999008178725 358.70719696071C308.3333239237469 359.5321969835982 315.6666574605308 418.49219861934046 333.99999130249046 422.0671987185226C352.3333251444501 425.6421988177047 359.6666586812339 371.87969732615807 377.99999252319355 375.8671974367843C396.3333263651532 379.85469754741047 403.6666599019371 438.5946991770492 421.99999374389677 441.20719924952846C440.3333275858564 443.8196993220077 447.6666611226403 391.7071978762374 465.9999949645999 388.4071977846847C484.3333288065595 385.1071976931319 491.6666623433434 422.89219874141077 509.9999961853031 425.3671988100753C528.3333300272627 427.84219887873985 535.6666635640465 397.26219803035116 553.9999974060063 400.28719811427453C572.3333312479659 403.31219819819785 579.6666647847499 440.71219923579554 597.9999986267094 439.8871992129074C616.3333324686689 439.06219919001916 632.8333329264326 405.40219825618124 641.9999998474125 396.32719800441123 " transform="rotate(66, 400, 400)"></path><path d="M168.99998634338385 405.94414745314094C177.7499865861373 402.6628973621084 193.49998702309355 387.83164695064124 210.9999875086005 390.19414701618473C228.4999879941074 392.55664708172816 235.49998818831023 423.45289793889066 252.99998867381714 417.28414776774946C270.49998915932406 411.11539759660826 277.49998935352687 359.79664617285914 294.9999898390338 360.584146194707C312.4999903245407 361.3716462165548 319.4999905187435 417.6516477779451 336.99999100425043 421.06414787261895C354.49999148975735 424.47664796729276 361.49999168396016 373.1578965435437 378.9999921694671 376.96414664914147C396.49999265497405 380.77039675473924 403.4999928491768 436.84039831030344 420.9999933346837 439.33414837948817C438.4999938201907 441.8278984486729 445.4999940143935 392.0841470686195 462.9999944999004 388.9341469812282C480.4999949854073 385.784146893837 487.4999951796101 421.85164789446674 504.99999566511707 424.21414796001017C522.4999961506239 426.5766480255536 529.4999963448267 397.38664721572803 546.9999968303338 400.2741472958367C564.4999973158407 403.16164737594534 571.4999975100434 438.8616483663795 588.9999979955503 438.0741483445317C606.4999984810572 437.28664832268385 622.2499989180135 405.15664743129315 630.999999160767 396.49414719096717 " transform="rotate(63, 400, 400)"></path><path d="M179.9999862670899 405.66108899781796C188.33331983161702 402.53608891112026 203.3333202477658 388.4110885192468 219.99998737682003 390.6610885816691C236.66665450587425 392.9110886440914 243.33332135749595 422.33608946043665 259.9999884865502 416.4610892974451C276.6666556156044 410.58608913445346 283.33332246722614 361.7110877785019 299.99998959628033 362.4610877993094C316.6666567253345 363.2110878201168 323.3333235769563 416.8110893071552 339.9999907060105 420.06108939732076C356.6666578350647 423.31108948748636 363.3333246866864 374.4360881315348 379.9999918157406 378.0610882321041C396.6666589447948 381.6860883326734 403.33332579641655 435.0860898141632 419.9999929254708 437.46108988005335C436.666660054525 439.8360899459436 443.3333269061467 392.46108863160697 459.9999940352009 389.46108854837723C476.6666611642551 386.46108846514744 483.33332801587676 420.81108941812823 499.99999514493106 423.06108948055055C516.6666622739854 425.31108954297287 523.333329125607 397.51108877171043 539.9999962546613 400.26108884800436C556.6666633837156 403.0110889242983 563.3333302353371 437.0110898675689 579.9999973643913 436.2610898467615C596.6666644934455 435.51108982595406 611.6666649095944 404.9110889770105 619.9999984741214 396.66108874812863 " transform="rotate(60, 400, 400)"></path><path d="M190.99998619079594 405.37802672779765C198.9166530770967 402.40927664543483 213.16665347243807 388.99052627315507 228.99998724503956 391.1280263324563C244.83332101764108 393.2655263917575 251.1666545266817 421.21927716728544 266.99998829928325 415.63802701244344C282.8333220718847 410.0567768576014 289.16665558092535 363.62552556944746 304.99998935352687 364.3380255892145C320.83332312612833 365.05052560898156 327.166656635169 415.97052702166803 342.9999904077705 419.05802710732536C358.833324180372 422.1455271929826 365.1666576894126 375.7142759048287 380.9999914620141 379.15802600036955C396.8333252346156 382.60177609591034 403.1666587436563 433.3317775033256 418.99999251625775 435.5880275659213C434.83332628885927 437.84427762851703 441.1666597978999 392.83802637989726 456.99999357050143 389.98802630082895C472.8333273431029 387.1380262217607 479.1666608521435 419.7705271270924 494.99999462474506 421.9080271863936C510.8333283973466 424.0455272456948 517.1666619063872 397.6355265129955 532.9999956789886 400.24802658547475C548.8333294515903 402.860526657954 555.1666629606309 435.1605275540611 570.9999967332324 434.448027534294C586.8333305058338 433.73552751452695 601.0833309011753 404.6655267080306 608.9999977874759 396.82802649059283 " transform="rotate(57, 400, 400)"></path><path d="M201.999986114502 405.0949797165664C209.49998632257638 402.2824796385385 222.99998669711033 389.5699792858524 237.99998711325912 391.5949793420325C252.99998752940792 393.6199793982126 258.99998769586745 420.1024801329233 273.99998811201624 414.8149799862308C288.9999885281651 409.5274798395384 294.99998869462456 365.539978619182 309.9999891107734 366.2149786379087C324.9999895269222 366.88997865663544 330.99998969338174 415.12997999497 345.99999010953053 418.05498007611897C360.9999905256793 420.97998015726796 366.9999906921388 376.99247893691165 381.99999110828765 380.254979027424C396.99999152443644 383.5174791179364 402.99999169089597 431.5774804512771 417.99999210704476 433.71498051057836C432.99999252319355 435.8524805698795 438.99999268965314 393.21497938697655 453.99999310580193 390.5149793120698C468.9999935219507 387.814979237163 474.9999936884102 418.7299800948457 489.99999410455905 420.75498015102573C504.9999945207079 422.7799802072059 510.9999946871674 397.75997951306965 525.9999951033162 400.2349795817342C540.9999955194651 402.70997965039874 546.9999956859245 433.3099804993423 561.9999961020733 432.63498048061564C576.9999965182221 431.9599804618889 590.499996892756 404.4199796978397 597.9999971008303 396.99497949184604 " transform="rotate(54, 400, 400)"></path><path d="M212.99998603820805 404.81192126124336C220.08331956805608 402.15567118755035 232.8333199217826 390.14942085445796 246.99998698147868 392.0619209075169C261.16665404117475 393.97442096057586 266.8333208650532 418.98567165446934 280.9999879247493 413.99192151592644C295.16665498444536 408.9981713773836 300.83332180832383 367.4544202248248 314.99998886801995 368.0919202425111C329.166655927716 368.72942026019746 334.83332275159444 414.28942152418006 348.99998981129056 417.05192160082083C363.1666568709866 419.81442167746155 368.83332369486504 378.27067052490276 382.99999075456117 381.3519206103866C397.16665781425723 384.43317069587056 402.8333246381357 429.82317195513684 416.9999916978318 431.84192201114354C431.1666587575279 433.8606720671502 436.8333255814063 393.59192094996405 450.99999264110244 391.04192087921876C465.1666597007985 388.4919208084735 470.8333265246769 417.68942161850714 484.99999358437304 419.6019216715661C499.16666064406917 421.5144217246251 504.8333274679476 397.884421069052 518.9999945276437 400.22192113390184C533.1666615873398 402.5594211987517 538.8333284112182 431.45942200053173 552.9999954709143 430.8219219828454C567.1666625306103 430.18442196515906 579.9166628843368 404.17442124355705 586.9999964141849 397.1619210490075 " transform="rotate(51, 400, 400)"></path><path d="M223.9999859619141 404.52887997205806C230.6666528135358 402.02887990269994 242.66665314645485 390.72887958920114 255.99998684969822 392.528879639139C269.3333205529416 394.32887968907687 274.66665403423895 417.86888034215303 287.99998773748234 413.16888021175976C301.3333214407257 408.4688800813665 306.6666549220231 369.36887899660525 319.99998862526644 369.96887901325124C333.33332232850984 370.5688790298972 338.6666558098072 413.4488802195279 351.99998951305054 416.04888029166034C365.33332321629393 418.6488803637928 370.6666566975913 379.54887927903155 383.9999904008347 382.448879359487C397.3333241040781 385.34887943994244 402.66665758537545 428.0688806251342 415.99999128861884 429.9688806778464C429.3333249918621 431.8688807305586 434.66665847315954 393.9688796790893 447.9999921764029 391.5688796125055C461.3333258796463 389.1688795459217 466.6666593609436 416.6488803083063 479.99999306418704 418.44888035824414C493.33332676743044 420.248880408182 498.6666602487278 398.00887979117203 511.99999395197113 400.2088798522072C525.3333276552146 402.40887991324234 530.666661136512 429.60888066785884 543.9999948397553 429.0088806512129C557.3333285429986 428.4088806345669 569.3333288759177 403.92887995541207 575.9999957275394 397.3288797723066 " transform="rotate(48, 400, 400)"></path><path d="M234.99998588562016 404.24581770203775C241.2499860590155 401.9020676370145 252.49998637112708 391.3083173431094 264.99998671791775 392.9958173899262C277.4999870647084 394.68331743674287 282.49998720342467 416.7520680490018 294.99998755021534 412.3458179267581C307.499987897006 407.9395678045144 312.4999880357223 371.28331678755075 324.999988382513 371.84581680315637C337.49998872930365 372.40831681876193 342.49998886801995 412.6083179340407 354.9999892148106 415.0458180016649C367.4999895616013 417.48331806928906 372.49998970031754 380.82706705232545 384.9999900471082 383.5458171277524C397.4999903938989 386.26456720317935 402.49999053261513 426.3145683142967 414.9999908794058 428.09581836371433C427.49999122619647 429.877068413132 432.4999913649127 394.34581742737953 444.9999917117034 392.0958173649572C457.49999205849406 389.8458173025349 462.4999921972103 415.60831801727045 474.999992544001 417.2958180640872C487.4999928907917 418.98331811090395 492.49999302950795 398.1333175324571 504.9999933762987 400.1958175896776C517.4999937230893 402.25831764689804 522.4999938618056 427.758318354351 534.9999942085963 427.1958183387454C547.4999945553868 426.63331832313986 558.7499948674986 403.6833176864322 564.9999950408939 397.4958175147708 " transform="rotate(45, 400, 400)"></path><path d="M245.9999858093262 403.9627592467147C251.83331930449518 401.77525918602635 262.33331959579937 391.88775891171497 273.9999865861373 393.46275895541055C285.66665357647526 395.0377589991062 290.33332037261044 415.6352595705479 301.9999873629484 411.52275945645374C313.6666543532864 407.4102593423596 318.3333211494216 373.19775839319357 329.9999881397595 373.72275840775876C341.66665513009747 374.24775842232395 346.33332192623266 411.76775946325085 357.9999889165706 414.04275952636675C369.66665590690855 416.31775958948265 374.3333227030438 382.10525864031655 385.99998969338174 384.6427587107151C397.6666566837197 387.1802587811136 402.3333234798548 424.5602598181564 413.9999904701928 426.22275986427957C425.6666574605308 427.88525991040274 430.33332425666595 394.7227589903671 441.99999124700395 392.62275893210625C453.66665823734184 390.5227588738454 458.3333250334771 414.56775954093195 469.999992023815 416.1427595846276C481.66665901415297 417.71775962832317 486.33332581028816 398.25775908843946 497.99999280062616 400.1827591418452C509.6666597909641 402.107759195251 514.3333265870992 425.90775985554046 525.9999935774372 425.3827598409752C537.6666605677751 424.85775982641 548.1666608590793 403.4377592321495 553.9999943542483 397.6627590719322 " transform="rotate(42, 400, 400)"></path><path d="M256.99998573303225 403.6797103281349C262.41665254997486 401.6484602717814 272.1666528204716 392.4672100170636 282.9999864543569 393.92971005763815C293.8333200882421 395.3922100982127 298.1666535417962 414.51846062883703 308.99998717568144 410.69971052289253C319.83332080956666 406.88096041694797 324.1666542631208 375.1122095355795 334.999987897006 375.5997095491043C345.8333215308913 376.08720956262914 350.1666549844454 410.9272105292041 360.99998861833063 413.0397105878117C371.8333222522159 415.15221064641935 376.16665570577 383.3834597650509 386.99998933965526 385.7397098304209C397.8333229735405 388.09595989579094 402.1666564270946 422.80596085875925 412.9999900609798 424.3497109015879C423.83332369486504 425.8934609444166 428.1666571484192 395.09971009009774 438.9999907823044 393.1497100359984C449.83332441618967 391.19970998189905 454.16665786974374 413.52721060133655 464.999991503629 414.9897106419111C475.8333251375143 416.4522106824856 480.1666585910683 398.38221018116496 490.99999222495364 400.16971023075604C501.83332585883886 401.9572102803471 506.166659312393 424.05721089347304 516.9999929462782 423.56971087994816C527.8333265801634 423.08221086642334 537.5833268506601 403.19221031461007 542.9999936676028 397.82971016583684 " transform="rotate(39, 400, 400)"></path><path d="M267.9999856567383 403.3966537801605C272.99998579545456 401.52165372814187 281.9999860451438 393.0466534930178 291.99998632257643 394.3966535304712C301.9999866000089 395.74665356792457 305.99998671098194 413.4016540577317 315.9999869884145 409.8766539599368C325.99998726584704 406.3516538621418 329.99998737682006 377.0266530485709 339.99998765425255 377.47665306105534C349.9999879316851 377.9266530735398 353.9999880426581 410.0866539657628 363.99998832009067 412.03665401986217C373.9999885975232 413.9866540739615 377.9999887084962 384.6616532603906 387.9999889859287 386.8366533207322C397.9999892633613 389.01165338107376 401.9999893743343 421.0516542699676 411.99998965176684 422.4766543095018C421.9999899291994 423.9016543490359 425.9999900401724 395.47665356043393 435.9999903176049 393.67665351049607C445.99999059503745 391.8766534605582 449.99999070601046 412.4866540323467 459.999990983443 413.83665406980003C469.99999126087556 415.18665410725345 473.9999913718486 398.50665364449594 483.9999916492811 400.1566536902723C493.9999919267137 401.8066537360487 497.99999203768664 422.2066543020111 507.9999923151192 421.75665428952664C517.9999925925517 421.3066542770421 526.999992842241 402.946653767676 531.9999929809572 397.99665363034694 " transform="rotate(36, 400, 400)"></path><path d="M279.0000008392334 403.11359723218607C283.58333429972333 401.3948471845024 291.8333345286052 393.626096968972 301.000001449585 394.8635970033042C310.1666683705648 396.1010970376365 313.8333351389567 412.2848474866264 323.0000020599366 409.053597396981C332.16666898091637 405.82234730733563 335.83333574930833 378.9410965615623 345.00000267028815 379.35359657300637C354.166669591268 379.76609658445045 357.83333635965994 409.2460974023216 367.00000328063976 411.03359745191267C376.1666702016196 412.82109750150374 379.8333369700115 385.9398467557304 389.0000038909913 387.9335968110435C398.16667081197113 389.92734686635663 401.8333375803631 419.29734768117595 411.0000045013429 420.6035977174156C420.16667142232274 421.9098477536552 423.8333381907147 395.85359703077006 433.00000511169446 394.2035969849937C442.1666720326743 392.55359693921736 445.83333880106625 411.44609746335675 455.00000572204607 412.68359749768905C464.1666726430259 413.9210975320213 467.8333394114178 398.631097107827 477.0000063323977 400.1435971497886C486.1666732533775 401.6560971917503 489.83334002176946 420.35609771054914 499.0000069427492 419.94359769910506C508.166673863729 419.531097687661 516.4166740926108 402.701097220742 521.0000075531008 398.163597094857 " transform="rotate(33, 400, 400)"></path><path d="M290.00000076293946 402.830544498909C294.16666754520304 401.26804445556013 301.66666775327747 394.2055442596234 310.00000131780456 395.33054429083455C318.33333488233166 396.45554432204574 321.6666683081425 411.16804473021836 330.0000018726696 408.2305446487225C338.33333543719675 405.29304456722673 341.6666688630076 380.85554388925095 350.0000024275347 381.23054389965466C358.3333359920618 381.60554391005843 361.66666941787264 408.4055446535776 370.0000029823998 410.0305446986604C378.3333365469269 411.6555447437432 381.66666997273774 387.2180440657674 390.00000353726483 389.03054411605206C398.3333371017919 390.8430441663367 401.66667052760283 417.5430449070816 410.0000040921299 418.7305449400267C418.333337656657 419.9180449729718 421.6666710824679 396.2305443158035 430.00000464699497 394.7305442741886C438.3333382115221 393.2305442325737 441.6666716373329 410.4055447090641 450.00000520186006 411.5305447402753C458.3333387663872 412.6555447714864 461.666672192198 398.7555443858552 470.00000575672516 400.1305444240022C478.3333393212523 401.50554446214915 481.6666727470631 418.50554493378445 490.0000063115902 418.13054492338074C498.3333398761173 417.75554491297703 505.8333400841917 402.4555444885052 510.00000686645524 398.3305443740643 " transform="rotate(30, 400, 400)"></path><path d="M301.00000068664554 402.54748795093457C304.75000079068275 401.1412379119206 311.5000009779497 394.78498773557754 319.00000118602406 395.7974877636676C326.5000013940985 396.80998779175764 329.5000014773283 410.051238159113 337.00000168540265 407.4074880857668C344.5000018934771 404.76373801242056 347.5000019767068 382.76998740224235 355.00000218478124 383.10748741160575C362.50000239285566 383.4449874209691 365.5000024760854 407.56498809013635 373.00000268415977 409.0274881307109C380.5000028922342 410.48998817128535 383.50000297546393 388.4962375611072 391.00000318353835 390.1274876063634C398.5000033916127 391.7587376516195 401.5000034748425 415.7887383182899 409.00000368291694 416.85748834794055C416.5000038909913 417.9262383775911 419.5000039742211 396.60748778613964 427.00000418229547 395.25748774868623C434.5000043903699 393.9074877112329 437.50000447359963 409.3649881400742 445.00000468167406 410.37748816816423C452.5000048897485 411.3899881962543 455.5000049729782 398.8799878491862 463.00000518105264 400.1174878835185C470.50000538912707 401.35498791785074 473.5000054723568 416.65498834232255 481.0000056804312 416.31748833295916C488.5000058885056 415.9799883235958 495.25000607577255 402.2099879415712 499.0000061798097 398.4974878385744 " transform="rotate(27, 400, 400)"></path><path d="M311.999992980957 402.2644371250061C315.3333264067679 401.014437090327 321.3333265732274 395.3644369335776 327.9999934248491 396.2644369585465C334.6666602764708 397.1644369835155 337.3333270171195 408.93443731005357 343.99999386874117 406.58443724485693C350.66666072036287 404.2344371796603 353.33332746101155 384.6844366372797 359.99999431263325 384.98443664560267C366.66666116425495 385.28443665392564 369.3333279049036 406.72443724874097 375.99999475652527 408.0244372848072C382.66666160814697 409.32443732087347 385.33332834879565 389.7744367784928 391.99999520041735 391.22443681872056C398.66666205203904 392.6744368589483 401.3333287926877 414.0344374515442 407.9999956443094 414.98443747790026C414.66666249593106 415.9344375042563 417.33332923657974 396.98443697852167 423.99999608820144 395.7844369452298C430.66666293982314 394.58443691193787 433.3333296804718 408.3244372931302 439.9999965320935 409.22443731809915C446.6666633837152 410.12443734306805 449.3333301243639 399.00443703456307 455.9999969759856 400.1044370650807C462.6666638276073 401.2044370955982 465.333330568256 414.8044374729065 471.9999974198777 414.5044374645835C478.6666642714993 414.2044374562605 484.66666443795884 401.9644371166831 487.9999978637697 398.6644370251304 " transform="rotate(24, 400, 400)"></path><path d="M322.9999929046631 401.98138248438033C325.9166596522476 400.8876324540361 331.1666597978997 395.94388231688043 336.99999329306866 396.7313823387282C342.8333267882376 397.5188823605761 345.1666601863052 407.8176326462969 350.99999368147417 405.7613825892498C356.8333271766432 403.70513253220275 359.1666605747108 386.59888205761973 364.9999940698798 386.86138206490233C370.83332756504876 387.1238820721849 373.1666609631163 405.8838825926484 378.9999944582853 407.0213826242063C384.8333279534543 408.1588826557643 387.1666613515219 391.05263218118125 392.99999484669087 392.32138221638047C398.83332834185984 393.59013225157975 401.1666617399274 412.28013277010115 406.99999523509643 413.1113827931627C412.8333287302654 413.9426328162243 415.166662128333 397.3613823562065 420.99999562350195 396.31138232707605C426.8333291186709 395.26138229794566 429.16666251673854 407.28388263148895 434.9999960119075 408.07138265333674C440.8333295070765 408.85888267518453 443.1666629051441 399.1288824052427 448.9999964003131 400.0913824319456C454.83332989548205 401.05388245864845 457.1666632935496 412.9538827887932 462.9999967887186 412.6913827815106C468.83333028388756 412.428882774228 474.08333042953967 401.71888247709774 476.99999717712416 398.83138239698906 " transform="rotate(21, 400, 400)"></path><path d="M333.99999282836916 401.69832784375456C336.4999928977273 400.7608278177453 340.9999930225719 396.52332770018324 345.9999931612882 397.1983277189099C350.99999330000446 397.8733277376366 352.999993355491 406.7008279825402 357.9999934942073 404.9383279336427C362.9999936329235 403.1758278847452 364.99999368841003 388.51332747795976 369.9999938271263 388.738327484202C374.9999939658426 388.9633274904442 376.99999402132903 405.0433279365557 381.99999416004533 406.01832796360543C386.99999429876164 406.9933279906551 388.9999943542481 392.3308275838696 393.99999449296433 393.41832761404044C398.99999463168064 394.5058276442112 400.99999468716715 410.52582808865816 405.9999948258834 411.2383281084252C410.9999949645997 411.95082812819226 412.9999950200862 397.73832773389125 417.99999515880245 396.83832770892235C422.9999952975187 395.9383276839534 424.99999535300526 406.24332796984766 429.9999954917215 406.91832798857433C434.99999563043775 407.593328007301 436.9999956859243 399.2533277759223 441.99999582464056 400.0783277988105C446.9999959633568 400.90332782169867 448.9999960188433 411.10332810467986 453.9999961575596 410.87832809843763C458.99999629627587 410.6533280921954 463.4999964211205 401.47332783751233 465.9999964904786 398.9983277688478 " transform="rotate(18, 400, 400)"></path><path d="M344.99999656677244 401.4152732031288C347.08332995790425 400.6340231814544 350.83333006194147 397.102773083486 354.99999684420504 397.66527309909156C359.16666362646856 398.2277731146972 360.833330339374 405.58402331878347 364.99999712163753 404.1152732780356C369.1666639039011 402.6465232372877 370.8333306168065 390.4277728982998 374.9999973990701 390.61527290350165C379.16666418133366 390.8027729087035 380.83333089423905 404.20277328046313 384.99999767650263 405.0152733030045C389.16666445876615 405.8277733255459 390.8333311716716 393.60902298655805 394.9999979539351 394.51527301170034C399.1666647361987 395.4215230368427 400.83333144910415 408.7715234072151 404.9999982313677 409.36527342368765C409.16666501363125 409.9590234401602 410.8333317265367 398.1152731115761 414.9999985088002 397.3652730907686C419.1666652910638 396.6152730699612 420.8333320039692 405.20277330820636 424.99999878623277 405.7652733238119C429.16666556849634 406.32777333941755 430.83333228140174 399.3777731466019 434.9999990636653 400.0652731656754C439.1666658459289 400.7527731847489 440.8333325588343 409.25277342056654 444.9999993410978 409.0652734153647C449.1666661233614 408.87777341016283 452.9166662273986 401.2277731979269 454.99999961853035 399.16527314070646 " transform="rotate(15, 400, 400)"></path><path d="M355.9999964904785 401.13221856250306C357.66666320338396 400.5072185451635 360.6666632866137 397.6822184667888 363.99999671242455 398.13221847927326C367.3333301382354 398.58221849175777 368.66666350855974 404.4672186550268 371.9999969343706 403.29221862242844C375.33333036018144 402.11721858983014 376.6666637305058 392.3422183186398 379.9999971563166 392.4922183228013C383.3333305821275 392.6422183269628 384.6666639524518 403.3622186243705 387.9999973782626 404.0122186424036C391.3333308040735 404.66221866043674 392.66666417439785 394.8872183892464 395.99999760020864 395.61221840936025C399.33333102601955 396.33721842947415 400.6666643963439 407.01721872577207 403.9999978221547 407.4922187389501C407.33333124796553 407.9672187521282 408.6666646182899 398.49221848926084 411.9999980441007 397.8922184726149C415.33333146991157 397.29221845596896 416.6666648402359 404.16221864656507 419.99999826604676 404.6122186590496C423.3333316918576 405.062218671534 424.66666506218195 399.50221851728156 427.9999984879928 400.05221853254034C431.33333191380365 400.6022185477991 432.666665284128 407.4022187364532 435.99999870993884 407.25221873229174C439.33333213574963 407.10221872813025 442.3333322189794 400.9822185583416 443.9999989318849 399.3322185125652 " transform="rotate(12, 400, 400)"></path><path d="M366.9999964141846 400.8491639218773C368.2499964488636 400.38041390887264 370.499996511286 398.2616638500916 372.9999965806441 398.59916385945496C375.49999665000223 398.9366638688183 376.49999667774546 403.3504139912701 378.99999674710364 402.4691639668213C381.49999681646176 401.5879139423726 382.49999684420504 394.2566637389799 384.9999969135631 394.369163742101C387.4999969829213 394.48166374522214 388.4999970106645 402.5216639682779 390.9999970800227 403.0091639818027C393.4999971493808 403.49666399532754 394.49999717712404 396.16541379193484 396.99999724648217 396.7091638070202C399.49999731584035 397.2529138221056 400.4999973435836 405.2629140443291 402.9999974129417 405.6191640542126C405.4999974822998 405.9754140640961 406.4999975100431 398.86916386694566 408.9999975794012 398.4191638544612C411.49999764875935 397.9691638419767 412.49999767650263 403.1216639849238 414.99999774586075 403.45916399428717C417.4999978152189 403.7966640036505 418.49999784296216 399.6266638879612 420.9999979123203 400.03916389940525C423.4999979816784 400.45166391084933 424.4999980094217 405.5516640523399 426.9999980787798 405.4391640492188C429.49999814813793 405.3266640460977 431.74999821056025 400.73666391875616 432.99999824523934 399.49916388442387 " transform="rotate(9, 400, 400)"></path><path d="M378.0000001525879 400.5661092812515C378.8333335090406 400.25360927258174 380.3333335506555 398.8411092333944 382.0000002635609 399.06610923963666C383.66666697646633 399.2911092458789 384.3333336616285 402.23360932751336 386.0000003745339 401.6461093112142C387.66666708743935 401.0586092949151 388.3333337726015 396.17110915931994 390.0000004855069 396.2461091614007C391.66666719841237 396.3211091634814 392.33333388357454 401.68110931218524 394.00000059647994 402.0061093212018C395.6666673093854 402.33110933021834 396.33333399454756 397.4436091946232 398.00000070745295 397.8061092046801C399.6666674203584 398.16860921473705 400.3333341055206 403.50860936288603 402.000000818426 403.74610936947505C403.6666675313314 403.98360937606407 404.33333421649354 399.2461092446304 406.000000929399 398.94610923630745C407.66666764230445 398.6461092279845 408.33333432746656 402.08110932328253 410.000001040372 402.30610932952476C411.66666775327747 402.53110933576704 412.3333344384396 399.7511092586408 414.00000115134503 400.02610926627017C415.6666678642505 400.30110927389956 416.3333345494126 403.70110936822664 418.00000126231805 403.6261093661459C419.66666797522345 403.55110936406516 421.16666801683834 400.49110927917076 422.00000137329107 399.6661092562826 " transform="rotate(6, 400, 400)"></path><path d="M389.00000007629393 400.2830546406258C389.4166667545203 400.1268046362909 390.1666667753277 399.4205546166972 391.00000013178044 399.5330546198183C391.83333348823317 399.6455546229394 392.1666668308143 401.1168046637567 393.00000018726695 400.8230546556071C393.8333335437197 400.52930464745754 394.16666688630073 398.08555457965997 395.00000024275346 398.12305458070034C395.8333335992062 398.1605545817407 396.1666669417873 400.84055465609265 397.00000029823997 401.0030546606009C397.8333336546927 401.1655546651092 398.16666699727375 398.7218045973116 399.0000003537265 398.9030546023401C399.8333337101792 399.08430460736855 400.16666705276026 401.75430468144305 401.000000409213 401.87305468473755C401.8333337656657 401.99180468803206 402.16666710824677 399.6230546223152 403.0000004646995 399.4730546181537C403.8333338211522 399.3230546139922 404.1666671637333 401.0405546616413 405.000000520186 401.1530546647624C405.83333387663873 401.2655546678835 406.1666672192198 399.8755546293204 407.0000005756725 400.0130546331351C407.83333393212524 400.1505546369498 408.1666672747063 401.8505546841133 409.000000631159 401.81305468307295C409.8333339876117 401.7755546820326 410.5833340084192 400.2455546395854 411.00000068664554 399.8330546281413 " transform="rotate(3, 400, 400)"></path></g></svg>